<svg xmlns="http://www.w3.org/2000/svg" width="511.725" height="511.701" viewBox="0 0 511.725 511.701">
  <g id="calendar-_6_" transform="translate(-0.5 511.829)">
    <path id="Path_5029" data-name="Path 5029" d="M131.5-510.8a20.263,20.263,0,0,0-11.4,10.1c-1.8,3.6-2.1,6.2-2.1,15.9v11.5l-15.8.6c-21.9.9-33.2,3.5-48.5,11.3-25.2,12.8-43.3,35.7-51,64.8L.5-388.5v304l2.3,8.9C5.2-65.9,11.9-51,17-43.5c4.6,6.6,15.4,17.9,22.2,23.2A103.468,103.468,0,0,0,86.1-1c5.9.8,58.6,1,175.4.8l167-.3,7.7-2.2c17.9-5.1,31.2-12.3,42.9-23.1,17.4-16.2,27.5-34.4,31.4-56.8,2.3-13.1,2.3-294.8,0-307.9-3.6-20.4-12.7-37.7-28-53-21-21-43.5-29.4-79.1-29.5h-9.2l-.3-12.9c-.4-12.5-.5-13.1-3.4-17.2-8.7-12.3-26.8-11.3-33.7,2-2.6,4.9-2.8,6.2-2.8,16.7V-473H158v-11.4c0-10.5-.2-11.8-2.8-16.7A19.68,19.68,0,0,0,131.5-510.8ZM118-411.5c0,23,.5,26.2,5.3,31.3,10.2,11,29.7,6.6,33.7-7.6.5-2,1-13,1-24.5V-433H354v20.7c0,11.5.5,22.5,1,24.5,4,14.2,23.5,18.6,33.7,7.6,4.8-5.1,5.3-8.3,5.3-31.4v-21.7l14.3.6c7.9.3,16.8,1.3,20.1,2.2,15.9,4.3,30.2,16.2,37.6,31.2,4.3,9,6,17.6,6,32V-355H40v-12.3c0-14.4,1.7-23,6-32C54.8-417.1,71.3-429,91.5-432c2.7-.4,9.8-.8,15.8-.9L118-433ZM472-203.7c0,108.2-.1,111.6-2,119.2a59.86,59.86,0,0,1-39.1,41.6l-7.4,2.4H88.5l-7.4-2.4C72.2-45.8,60.7-53.3,55-59.8A60.574,60.574,0,0,1,42-84.5c-1.9-7.6-2-11.1-2-119.2V-315H472Z" fill="#fff"/>
    <path id="Path_5030" data-name="Path 5030" d="M110.5-254.1c-6.8,3-12.5,11.3-12.5,18.1s5.7,15.1,12.5,18.1c3.5,1.6,6.9,1.9,27.3,1.9,25.7,0,27.9-.4,34-6.3a20.385,20.385,0,0,0,4.8-8.4c1.4-4.8,1.4-5.8,0-10.6a20.385,20.385,0,0,0-4.8-8.4c-6.1-5.9-8.3-6.3-34-6.3C117.4-256,114-255.7,110.5-254.1Z" fill="#fff"/>
    <path id="Path_5031" data-name="Path 5031" d="M227.2-253.4a19.145,19.145,0,0,0-5.9,30.1c6,6.8,8.2,7.3,34.7,7.3,26,0,28.5-.5,34.4-6.8,8.8-9.4,5.3-25.7-6.9-31.3-3.5-1.6-6.8-1.9-27.6-1.9C232.6-256,232.4-256,227.2-253.4Z" fill="#fff"/>
    <path id="Path_5032" data-name="Path 5032" d="M347-254.4c-16.6,7.2-16.5,29.9.2,36.8,3,1.3,8.2,1.6,27,1.6,20.4,0,23.8-.3,27.3-1.9,6.8-3,12.5-11.3,12.5-18.1s-5.7-15.1-12.5-18.1c-3.5-1.6-6.9-1.9-27.5-1.8C355.2-255.9,349.8-255.6,347-254.4Z" fill="#fff"/>
    <path id="Path_5033" data-name="Path 5033" d="M109.2-135.4a19.145,19.145,0,0,0-5.9,30.1c5.9,6.8,8.3,7.3,34.5,7.3,18.8,0,24-.3,27-1.6,13.6-5.6,17-22.7,6.5-32.6-5.6-5.4-8.2-5.8-33.6-5.8C114.6-138,114.3-138,109.2-135.4Z" fill="#fff"/>
    <path id="Path_5034" data-name="Path 5034" d="M229.5-136.7a20.125,20.125,0,0,0-13,15.8c-1.5,7.9,3.9,17.4,12,21C232-98.3,235.4-98,256-98c26.6,0,29-.6,34.8-7.5,8.3-10.1,4.7-25-7.3-30.6-3.5-1.6-6.7-1.8-27.5-1.8C240.5-137.9,231.5-137.4,229.5-136.7Z" fill="#fff"/>
    <path id="Path_5035" data-name="Path 5035" d="M347-136.4c-16.6,7.2-16.5,29.9.2,36.8,3,1.3,8.2,1.6,27,1.6,26.2,0,28.6-.5,34.5-7.3a19.172,19.172,0,0,0-6.1-30.2c-4.9-2.4-5.5-2.5-28.5-2.5C355.3-137.9,349.8-137.6,347-136.4Z" fill="#fff"/>
  </g>
</svg>
